<svg clip-rule="evenodd" fill-rule="evenodd" stroke-linejoin="round" stroke-miterlimit="2" viewBox="0 0 24 24" xmlns="http://www.w3.org/2000/svg"><path d="m13 16.75c0-.414-.336-.75-.75-.75h-9.5c-.414 0-.75.336-.75.75s.336.75.75.75h9.5c.414 0 .75-.336.75-.75zm2.195-5.992 2.746 2.999c.142.154.342.243.552.243s.41-.088.553-.242l2.757-2.999c.132-.144.197-.326.197-.507 0-.684-.841-1.008-1.303-.508l-2.202 2.397-2.194-2.396c-.46-.503-1.303-.175-1.303.507 0 .18.065.362.197.506zm-2.195.992c0-.414-.336-.75-.75-.75h-9.5c-.414 0-.75.336-.75.75s.336.75.75.75h9.5c.414 0 .75-.336.75-.75zm0-5c0-.414-.336-.75-.75-.75h-9.5c-.414 0-.75.336-.75.75s.336.75.75.75h9.5c.414 0 .75-.336.75-.75z" fill-rule="nonzero" fill="#fff"/></svg>